<?xml version="1.0" standalone="no"?>
<!DOCTYPE svg PUBLIC "-//W3C//DTD SVG 1.1//EN" "http://www.w3.org/Graphics/SVG/1.1/DTD/svg11.dtd" >
<svg xmlns="http://www.w3.org/2000/svg">
<metadata>Generated by IcoMoon</metadata>
<defs>
<font id="Analytics-icon" horiz-adv-x="1024">
<font-face units-per-em="1024" ascent="960" descent="-64" />
<missing-glyph horiz-adv-x="1024" />
<glyph unicode="&#x20;" horiz-adv-x="512" d="" />
<glyph unicode="&#xe900;" glyph-name="mail" d="M909.995 736h-796.672l398.677-314.795zM643.968 480.384l147.541-174.123-4.352-4.523-170.923 156.629-104.235-82.347-104.235 82.347-170.923-156.629-4.352 4.523 147.328 174.123-283.819 224.128v-544.512h832v544.939z" />
<glyph unicode="&#xe901;" glyph-name="file" d="M576 864h-304c-44.203 0-80-35.797-80-80v-672c0-44.203 35.797-80 80-80h480c44.203 0 80 35.797 80 80v496l-256 256zM544 576v224l224-224h-224z" />
<glyph unicode="&#xe902;" glyph-name="phone" d="M725.333 864h-426.667c-58.325 0-106.667-47.104-106.667-104.021v-624c0-56.875 48.341-104.021 106.667-104.021h426.667c58.325 0 106.667 47.104 106.667 104.021v624c0 56.917-48.341 104.021-106.667 104.021zM583.68 101.888h-143.317v34.091h143.317v-34.091zM770.347 205.909h-516.651v554.112h516.651v-554.112z" />
<glyph unicode="&#xe903;" glyph-name="notifications" d="M512 0c48.725 0 88.619 38.997 88.619 86.699h-177.237c0-47.701 39.893-86.699 88.619-86.699zM807.381 289.024v231.211c-1.749 134.827-98.859 249.771-236.288 289.024v28.885c8.704 29.099-20.693 57.813-59.093 57.813s-67.755-28.715-59.093-57.813v-28.885c-137.429-39.296-234.581-154.197-236.288-289.024v-231.211l-88.619-86.699v-57.813h768v57.813l-88.619 86.699z" />
<glyph unicode="&#xe904;" glyph-name="new" d="M796.501 114.688c0-11.349-8.661-22.443-20.437-22.443s-597.803 0.213-597.803 0.213c-12.459 0-21.76 11.989-21.76 22.229v595.584c0 11.093 10.453 22.229 23.552 22.229h332.032l71.125 71.125h-445.824c-28.885 0-52.011-22.869-52.011-51.797v-678.485c0-28.672 23.339-52.011 52.011-52.011h678.485c28.672 0 51.797 23.339 51.797 52.011v445.824l-71.125-71.125v-333.355zM298.667 234.667l142.251 31.36 392.448 384.469-121.088 120.875-382.251-394.453zM927.147 795.605l-67.541 67.541c-15.573 15.317-40.448 15.317-55.765 0l-70.656-70.656 123.349-123.349 70.656 70.443c15.317 15.787 15.317 40.704-0.043 56.021z" />
<glyph unicode="&#xe905;" glyph-name="overview" d="M85.333 533.333h170.667v-512h-170.667v512zM768 661.333h170.667v-640h-170.667v640zM426.667 874.667h170.667v-853.333h-170.667v853.333z" />
<glyph unicode="&#xe906;" glyph-name="explore" d="M512 874.667c-234.667 0-426.667-192-426.667-426.667s192-426.667 426.667-426.667 426.667 192 426.667 426.667-192 426.667-426.667 426.667zM605.867 354.133l-349.867-162.133 162.133 349.867 349.867 162.133-162.133-349.867zM512 401.067c25.6 0 46.933 21.333 46.933 46.933s-21.333 46.933-46.933 46.933-46.933-21.333-46.933-46.933 21.333-46.933 46.933-46.933z" />
<glyph unicode="&#xe907;" glyph-name="behavior" d="M925.568 553.259c-38.315 150.997-157.184 269.867-308.096 308.267 0-32.597 1.195-306.859 1.195-306.859s193.493-1.408 306.901-1.408zM512 448c0 0 0.043 324.864 0 426.667-235.648 0-426.667-191.019-426.667-426.667s191.019-426.667 426.667-426.667 426.667 191.019 426.667 426.667c-128-3.328-426.667 0-426.667 0z" />
<glyph unicode="&#xe908;" glyph-name="download" d="M832 874.667h-640c-58.923 0-106.667-47.744-106.667-106.667v-640c0-58.923 47.744-106.667 106.667-106.667h640c58.923 0 106.667 47.744 106.667 106.667v640c0 58.923-47.744 106.667-106.667 106.667zM832 341.333c0-29.44-23.893-53.333-53.333-53.333h-53.333c-46.123 0-53.333-53.333-53.333-53.333v-53.333c0-29.44-23.893-53.333-53.333-53.333h-213.333c-29.44 0-53.333 23.893-53.333 53.333v53.333c0 0-0.341 53.333-53.333 53.333h-53.333c-29.44 0-53.333 23.851-53.333 53.333v373.333c0 29.44 23.893 53.333 53.333 53.333h533.333c29.44 0 53.333-23.893 53.333-53.333v-373.333zM565.333 661.333h-106.667v-213.333h-160l213.333-213.333 213.333 213.333h-160z" />
<glyph unicode="&#xe909;" glyph-name="authorization" d="M601.301 540.928c14.251 31.957 22.699 67.499 22.699 103.083 0 139.179 0 251.989-168.021 251.989s-168.021-112.811-168.021-251.989c0-86.699 50.304-173.355 112-208.085v-46.165c-189.952-15.531-336-108.885-336-221.696h347.648c-7.595 26.709-11.648 54.869-11.648 83.968 0.043 132.309 83.925 245.376 201.344 288.896zM708.011 503.979c-139.179 0-251.989-112.811-251.989-251.989s112.811-251.989 251.989-251.989 251.989 112.811 251.989 251.989-112.811 251.989-251.989 251.989zM848 224h-112v-112h-55.979v112h-112v55.979h112v112h55.979v-112h112v-55.979z" />
<glyph unicode="&#xe90a;" glyph-name="age-6" d="M476.587 844.501c-12.331 39.637-55.893 60.928-97.323 47.488-41.429-13.483-64.981-56.533-52.651-96.213l149.973 48.725zM778.88 533.931c11.307-7.339-5.163 7.893-8.277 12.117-11.008 14.805-21.291 30.080-31.616 45.312-12.203 18.005-24.149 36.181-35.925 54.443-15.232 23.637-46.251 26.539-70.997 32.939-34.261 8.832-68.779 16.683-103.723 21.931-61.099 22.229-141.696-45.824-99.456-119.595 1.536-2.688 3.029-5.461 4.565-8.149-32.128-41.899-80.512-57.472-140.843-51.029-37.035 3.968-45.824-39.552-27.093-63.488v-451.285h27.093v436.48c73.216-7.808 134.827 13.739 180.011 58.539 18.389-34.176 36.309-68.565 53.803-103.253-47.829-33.664-89.6-74.496-126.165-121.472-12.587-16.128-12.544-32.896-5.547-46.336-0.256-4.779 0.171-9.899 1.536-15.36 14.080-56.917 28.16-113.877 42.24-170.795 14.976-60.715 108.885-43.392 93.824 17.621-14.080 56.96-28.16 113.877-42.24 170.837-0.171 0.683-0.384 1.28-0.555 1.963 29.995 36.011 64.811 67.755 104.149 92.8 4.736-94.891 9.515-195.627 14.251-283.435 3.413-62.763 98.731-57.856 95.317 5.077-6.528 120.832-13.056 266.069-19.627 386.901-0.597 11.008-4.053 19.883-9.259 26.795-1.579 5.376-3.627 10.752-6.357 16.256-18.56 36.949-37.675 73.6-57.387 109.995 8.277-2.261 16.512-4.565 24.704-6.869 26.965-44.715 56.789-101.803 98.005-128.555 49.365-32.085 94.592 47.829 45.568 79.616zM292.139 744.363l241.707 78.507c3.627 1.195 5.973 3.925 5.333 6.144l-54.955 8.192-156.331-50.773-43.563-40.192c0.683-2.219 4.181-3.072 7.808-1.877zM441.131 699.435c40.747 13.227 63.275 57.771 50.304 99.413l-147.541-48c12.971-41.685 56.533-64.725 97.237-51.413z" />
<glyph unicode="&#xe90b;" glyph-name="age-5" d="M504.832 732.544c52.608 0 95.275 43.776 95.275 97.749s-42.667 97.749-95.275 97.749c-52.608 0-95.275-43.776-95.275-97.749 0-54.016 42.624-97.749 95.275-97.749zM468.181 805.248c11.605 13.056 31.147 12.501 33.067 12.416 0.128 0.085 21.077 1.323 33.195-12.331 12.117-13.781 10.965-37.419 10.965-37.419s-21.077-1.323-33.195 12.331c-8.363 9.429-10.453 23.552-10.88 31.488-0.427-7.936-2.517-22.059-10.88-31.488-12.203-13.739-33.237-12.331-33.237-12.331s-1.152 23.68 10.965 37.333zM494.336 95.317h305.664v188.629h-80.085l0.043 3.115c0 27.392-14.165 51.669-35.541 64.939 3.712 6.059 5.931 13.312 5.973 21.035 0.597 203.093-63.659 275.541-108.245 306.987l-77.312-106.283-75.392 106.283c-44.672-31.445-110.080-111.403-109.44-314.581 0.043-21.888 17.28-40.277 38.699-40.277h0.043c21.419 0.085 39.083 18.688 39.040 40.533-0.171 59.221 1.237 105.643 15.019 141.013v-127.829c0-18.432 5.76-35.712 12.672-50.432v-320.811c0-21.931 18.005-39.595 39.296-39.595 21.376 0 39.424 17.749 39.424 39.595l3.243 0.299c0-21.931 17.749-39.893 39.040-39.893s39.893 18.261 39.893 40.235v56.491h-122.923v251.093h92.459c7.083 23.168 22.485 42.24 42.283 54.443 1.109 5.12 0.171 137.344 0.171 137.344 10.965-29.141 15.787-74.88 15.573-134.101 0-5.803 1.067-11.307 3.157-16.299-26.411-11.605-45.013-38.741-45.013-70.059l0.043-3.115h-77.696l-0.085-188.757zM646.016 331.477c23.851 0 43.392-20.181 43.392-44.587l-0.085-3.115h-86.485c-0.128 1.28-0.171 2.261-0.171 3.157-0.043 24.491 19.413 44.544 43.349 44.544zM550.528 721.835l-22.571-9.643c-4.651 8.149-13.184 13.739-23.040 13.739-9.899 0-18.347-5.547-22.997-13.525l-22.699 9.899c-3.2 1.451-7.296 1.109-10.283-0.853-3.029-2.091-5.077-5.547-5.077-9.216v-28.885c0-3.456 1.92-6.784 4.651-8.747 2.731-2.133 6.357-2.731 9.6-1.749 8.832 2.816 19.883 6.187 26.155 8.192 4.949-6.101 12.331-10.069 20.608-10.069 8.021 0 15.189 3.712 20.139 9.387 6.443-1.877 17.579-5.461 26.624-8.149 3.115-0.981 6.869-0.384 9.515 1.749 2.773 2.005 4.523 5.333 4.523 8.747v29.056c0 3.755-1.963 7.125-4.907 9.131-2.987 2.048-6.997 2.432-10.24 0.939z" />
<glyph unicode="&#xe90c;" glyph-name="age-4" d="M514.219 725.163c50.816 0 92.117 59.264 92.117 110.336 0 51.115-41.259 92.544-92.117 92.544-50.901 0-92.16-41.429-92.16-92.544s41.259-110.336 92.16-110.336zM736.341 334.592h-26.112v24.704c10.197 7.509 16.555 19.669 15.061 33.109l-29.141 263.424c-0.213 1.792-1.152 3.2-1.579 4.907-0.64 2.688-1.237 5.333-2.517 7.808-0.939 1.835-2.304 3.243-3.541 4.907-1.621 2.133-3.115 4.309-5.205 6.101-1.664 1.365-3.584 2.219-5.419 3.285-1.877 1.109-3.413 2.603-5.504 3.371-3.328 1.195-76.629 27.605-144 31.104l-9.259-18.645h-0.213l24.533-191.915-29.141-51.115-29.141 51.115 24.533 191.915h-0.299l-9.259 18.645c-67.371-3.499-140.672-29.909-143.957-31.104-2.133-0.768-3.712-2.304-5.547-3.413-1.792-1.109-3.755-1.877-5.333-3.243-2.176-1.835-3.712-4.053-5.376-6.272-1.152-1.579-2.475-2.944-3.413-4.693-1.28-2.475-1.835-5.163-2.56-7.936-0.427-1.664-1.323-3.029-1.536-4.779l-29.141-263.424c-2.219-20.096 12.203-38.144 32.171-40.405 1.365-0.171 2.731-0.213 4.096-0.213 18.304 0 34.091 13.824 36.139 32.512l26.539 239.957c3.115 0.939 6.485 1.92 10.112 2.944v-249.728l-29.013-362.112c-1.92-24.192 16-45.355 40.064-47.275 1.195-0.085 2.347-0.128 3.541-0.128 22.528 0 41.685 17.408 43.52 40.405l26.197 327.296c5.419-2.389 11.349-3.797 17.621-3.797s12.245 1.365 17.621 3.797l26.197-327.296c1.835-22.997 20.949-40.405 43.52-40.405 1.195 0 2.347 0.043 3.541 0.128 24.064 1.963 41.984 23.125 40.064 47.275l-29.013 362.112v249.728c3.627-1.024 6.955-2.005 10.112-2.944l26.581-239.957c1.963-17.621 16.128-30.464 33.024-31.957v-17.792h-26.112c-8.277-0.256-14.592-6.741-14.592-14.635v-221.909c0-8.064 6.571-14.635 14.592-14.635h76.501c8.021 0 14.592 6.571 14.592 14.635v221.909c0.043 8.021-6.571 14.635-14.549 14.635z" />
<glyph unicode="&#xe90d;" glyph-name="age-3" d="M533.461 746.539c-21.547 4.352-44.971 4.181-66.133-0.811-143.701-16.811-190.379-182.656-177.195-309.12 5.717-54.656 92.16-55.253 86.4 0-4.779 46.080-2.731 115.669 21.845 165.077v-180.267c0-2.133 0.213-4.096 0.299-6.144-0.043-0.981-0.299-1.792-0.299-2.773 0-143.019-0.256-285.995-6.187-428.928-2.603-63.531 96.171-63.275 98.773 0 4.651 112 5.803 224.085 6.059 336.171 4.693-0.299 9.344-0.299 14.037-0.043 0.299-112.085 1.408-224.171 6.016-336.128 2.645-63.275 101.419-63.531 98.773 0-5.931 142.933-6.144 285.867-6.144 428.928 0 4.437-0.597 8.491-1.493 12.373-0.128 62.080-2.517 124.245-1.792 186.283 29.397-49.664 32.085-125.397 27.008-174.507-5.803-55.211 80.683-54.656 86.4 0 13.525 129.067-35.371 299.221-186.368 309.888zM589.781 873.813c0-47.6-38.702-86.187-86.443-86.187s-86.443 38.587-86.443 86.187c0 47.6 38.702 86.187 86.443 86.187s86.443-38.587 86.443-86.187z" />
<glyph unicode="&#xe90e;" glyph-name="age-2" d="M585.344 70.656v0l-0.043-0.043zM472.789 645.419c12.501-4.736 25.856-7.125 39.211-7.125 31.403 0 61.781 13.653 82.603 37.035 21.035 23.637 30.891 55.723 26.923 87.040-3.925 30.72-21.205 58.837-46.72 76.501-26.155 18.091-59.605 23.979-90.411 16.085-29.909-7.68-55.723-28.117-70.144-55.339-14.848-28.075-16.725-62.080-5.035-91.648 11.349-28.587 34.773-51.627 63.573-62.549zM585.301 70.613v0l-0.085-0.171zM790.613 854.187l-4.736 3.968c-14.891 10.325-35.371 6.656-45.739-8.192 0 0-102.528-155.819-137.685-197.547-26.24-31.104-51.243-39.851-88.917-34.645-18.603 2.56-249.088 59.691-249.088 59.691-16.171 3.883-33.152-5.376-38.656-20.992-5.333-15.104 1.451-32.341 15.659-39.808 1.28-0.683 2.645-1.28 4.011-1.792l250.027-91.733c1.408-4.267 13.653-37.333 20.651-71.936 4.437-22.016 6.315-44.416 7.552-66.816 0.896-15.701 0.683-31.403 0.469-47.104-0.171-16.171 2.475-32.043 8.917-46.976-0.555-20.48-1.621-40.917-3.371-61.312-1.92-22.315-5.419-44.501-9.088-66.603-4.608-27.947-11.861-38.656-12.331-39.381-8.96-3.371-19.84-2.219-29.099-0.981-11.093 1.451-22.016 4.053-32.768 7.211-9.429 2.773-18.731 5.931-27.904 9.472-7.296 2.816-14.379 6.016-21.589 9.045-3.328 1.408-6.656 2.987-10.325 3.755-3.797 0.811-7.68 1.109-11.52 0.768-7.637-0.597-15.061-3.371-21.163-7.936-12.757-9.6-18.688-26.325-14.763-41.771 2.773-10.923 10.155-20.309 20.139-25.6 32.043-17.451 66.347-32.469 102.144-40.192 19.371-4.181 39.509-6.272 59.264-3.413 20.523 2.944 40.021 11.52 54.912 26.069 3.541 3.499 6.827 7.296 9.771 11.307l5.248 7.595c2.901 4.48 5.589 9.088 8.064 13.824 4.949 9.472 9.216 19.285 12.971 29.269 7.552 20.011 13.44 40.661 18.475 61.44 3.285 13.653 6.229 27.392 8.917 41.173 5.589 0.256 11.093 0.896 16.597 1.963 9.899-20.181 19.072-40.704 26.88-61.824-20.864-8.107-31.061-32.555-22.187-53.077 6.016-13.867 13.269-27.136 23.509-38.4 11.136-12.245 25.216-21.76 41.301-26.155 8.789-2.432 18.048-3.243 27.051-1.835 18.133 2.859 33.323 16.896 36.565 35.968 6.997 41.003 0.299 82.901-9.131 122.965-5.12 21.717-11.349 43.179-18.304 64.341-4.565 13.867-9.259 27.776-14.763 41.344-1.067 2.688-2.133 5.419-3.285 8.064 1.365 9.003 1.451 18.048 0.725 27.136-0.768 9.088-1.365 18.176-2.304 27.221-2.219 21.419-5.205 42.795-9.259 63.915-8.448 44.032-20.267 87.552-37.675 128.939-4.736 11.264-9.813 22.357-15.488 33.152l116.907 218.197c6.741 12.544 4.352 28.16-5.589 38.229z" />
<glyph unicode="&#xe90f;" glyph-name="age-1" d="M627.627 746.496c0-64.896-51.749-117.504-115.584-117.504s-115.584 52.608-115.584 117.504c0 64.896 51.749 117.504 115.584 117.504s115.584-52.608 115.584-117.504zM413.995 174.976l67.499 68.395-91.861 93.397-78.251-79.616c-25.173-25.557-18.688-70.485 4.736-94.848l109.312-115.499c42.24-42.795 98.517 16.427 57.771 57.856l-69.205 70.315zM632.832 336.811l-91.861-93.397 67.456-68.395-69.163-70.272c-40.747-41.429 15.488-100.651 57.685-57.856l109.312 115.499c23.509 24.363 29.995 69.291 4.821 94.848l-78.251 79.573zM614.613 352c8.277 8.533 5.376 15.445-6.528 15.488h-193.92c-11.904-0.043-14.635-6.827-6.144-15.104l90.453-88.576c4.181-4.096 9.643-6.144 15.104-6.144 5.632 0 11.264 2.176 15.445 6.485l85.589 87.851zM786.432 430.933l-156.373 159.147c-12.928 12.928-27.605 20.736-49.408 20.736h-138.88c-21.845 0-35.584-8.064-48.043-20.736l-154.88-157.611c-42.325-42.965 14.933-98.005 57.173-55.083l93.483 95.616v-89.728h243.84v90.24l96-97.707c38.613-41.387 97.451 14.165 57.088 55.125z" />
<glyph unicode="&#xe910;" glyph-name="man" d="M424.107 398.464c0-24.672-19.485-44.672-43.52-44.672s-43.52 20-43.52 44.672c0 24.672 19.485 44.672 43.52 44.672s43.52-20 43.52-44.672zM560.384 276.736c0-10.957-21.662-19.84-48.384-19.84s-48.384 8.883-48.384 19.84c0 10.957 21.662 19.84 48.384 19.84s48.384-8.883 48.384-19.84zM686.933 398.464c0-24.672-19.485-44.672-43.52-44.672s-43.52 20-43.52 44.672c0 24.672 19.485 44.672 43.52 44.672s43.52-20 43.52-44.672zM901.419 410.112v170.197c0 94.933-46.464 141.013-117.248 162.432-37.291 97.664-194.987 176.469-343.125 146.987-139.179-27.733-259.883-124.843-302.379-227.669-5.461-11.861-9.557-25.131-12.203-39.893-0.299-1.408-0.768-2.859-1.067-4.267-0.299-1.664-0.213-2.944-0.427-4.565-1.365-10.368-2.347-21.205-2.347-33.067v-170.112c-16.597-22.315-26.581-50.603-26.624-81.365 0-58.411 35.797-107.947 84.907-124.459 63.061-124.203 189.824-204.416 330.496-204.416 140.501 0 267.136 80 330.24 203.947 49.877 16.043 86.357 65.92 86.357 124.885 0 30.848-10.027 59.051-26.581 81.365zM807.168 277.973c-6.016 0-11.691 1.408-16.896 3.968-39.296-117.675-149.205-202.496-278.912-202.496-129.536 0-239.275 84.693-278.741 202.155-4.907-2.304-10.24-3.627-15.829-3.627-24.064 0-43.392 22.869-43.392 50.987s19.328 50.859 43.392 50.859h0.128c0.213 36.096 7.083 91.435 19.029 129.621 25.344-35.243 61.269-67.072 63.317-68.907 1.835-1.579 4.053-2.389 6.272-2.389 1.664 0 3.328 0.384 4.821 1.28 3.541 2.091 5.419 6.229 4.651 10.368-7.979 44.288 9.088 68.864 18.773 78.891 57.813-59.605 146.56-68.693 195.413-68.693 28.672 0 47.872 2.901 48.683 3.029 3.84 0.597 6.997 3.499 7.936 7.381s-0.469 7.936-3.584 10.325c-42.027 32.384-36.139 85.931-32.213 105.643 92.885-9.685 128.171-110.805 128.555-111.872 1.28-3.797 4.693-6.443 8.619-6.656 2.005-0.128 4.011-0.171 5.973-0.171h0.043c42.325 0 71.083 25.216 89.856 52.181 14.293-37.845 22.485-100.608 22.784-140.288 0.469 0.043 0.896 0.171 1.323 0.171 24.064 0 43.392-22.741 43.392-50.859 0-28.16-19.328-50.901-43.392-50.901z" />
<glyph unicode="&#xe911;" glyph-name="woman" d="M559.829 235.776c0-10.415-21.414-18.859-47.829-18.859s-47.829 8.443-47.829 18.859c0 10.415 21.414 18.859 47.829 18.859s47.829-8.443 47.829-18.859zM608.939 841.771c-5.333 48.384-46.421 86.229-96.896 86.229s-91.563-37.845-96.896-86.229c31.189 7.296 63.488 11.52 96.896 11.52s65.749-4.267 96.896-11.52zM425.685 351.488c0-23.776-19.523-43.051-43.605-43.051s-43.605 19.274-43.605 43.051c0 23.776 19.523 43.051 43.605 43.051s43.605-19.274 43.605-43.051zM685.611 351.488c0-23.776-19.542-43.051-43.648-43.051s-43.648 19.274-43.648 43.051c0 23.776 19.542 43.051 43.648 43.051s43.648-19.274 43.648-43.051zM886.315 381.056c6.357 26.368 10.027 53.845 10.027 82.048 0.043 203.051-172.373 368.256-384.299 368.256-211.968 0-384.341-165.163-384.341-368.213 0-28.245 3.712-55.637 10.027-82.091-25.472-23.595-41.685-57.685-41.685-95.787 0-56.875 35.883-105.216 85.376-122.155 63.445-118.613 189.909-195.115 330.027-195.115 140.032 0 266.283 76.331 329.771 194.688 50.261 16.427 86.827 65.237 86.827 122.581-0.043 38.101-16.256 72.235-41.728 95.787zM803.84 236.928c-5.931 0-11.605 1.323-16.725 3.755-38.869-111.872-147.499-192.555-275.712-192.555-128.085 0-236.587 80.512-275.584 192.171-4.821-2.133-10.112-3.456-15.659-3.456-23.723 0.043-42.837 21.717-42.837 48.384s19.072 48.341 42.795 48.341c6.528-11.051 14.037-21.675 22.571-31.829-7.467 25.259-11.605 51.243-12.117 77.056 49.536 0.469 117.248 30.421 178.56 83.371 53.333 46.037 89.685 99.157 102.912 144.085 13.227-44.885 49.579-98.005 102.912-144.085 61.312-52.992 129.024-82.901 178.517-83.371-0.512-25.813-4.651-51.797-12.117-77.056 8.533 10.155 16.043 20.779 22.571 31.829 23.765-0.043 42.795-21.675 42.795-48.341 0-26.624-19.115-48.299-42.88-48.299z" />
<glyph unicode="&#xe912;" glyph-name="unknow" d="M909.312 490.965c-4.523 46.080-14.549 101.973-32.128 141.44-4.352 9.6-106.752 231.552-365.227 231.552-66.901 0-123.093-14.72-169.899-36.651-78.805-30.421-139.563-86.699-177.152-163.2-10.795-18.048-16.299-30.464-17.152-32.555-17.195-38.485-27.051-93.611-31.659-139.477-31.531-24.448-52.096-64.299-52.096-109.227 0-62.037 39.168-114.389 92.288-129.835 67.285-134.187 204.288-221.013 356.395-221.013 152.192 0 289.323 87.040 356.608 221.483 52.309 16.043 90.709 67.968 90.709 129.408-0.043 44.245-19.968 83.584-50.688 108.075zM835.115 327.424c-6.101 0-11.947 1.451-17.323 3.925-43.136-128.043-163.285-220.288-305.109-220.288-141.952 0-262.272 92.459-305.237 220.715-5.717-2.773-11.947-4.352-18.517-4.352-26.325 0-47.488 24.875-47.488 55.509s21.163 55.424 47.488 55.424c0.469 0 0.939-0.128 1.451-0.171 0.128 17.024 1.621 38.101 4.309 59.819 3.755-0.171 7.509-0.469 11.392-0.469 66.901 0 142.293 27.563 208.128 75.819 33.877-28.757 81.109-60.587 124.373-60.587h12.117l-2.731 12.075c-0.213 0.768-14.592 66.005-17.877 124.16 20.48-25.173 43.947-48.085 69.931-68.267 68.139-52.949 147.669-83.328 218.069-83.328 4.309 0 8.491 0.256 12.629 0.512 2.645-21.632 4.139-42.581 4.267-59.563 0.085 0 0.128 0 0.171 0 26.325 0 47.488-24.832 47.488-55.424-0.085-30.677-21.205-55.509-47.531-55.509z" />
<glyph unicode="&#xe913;" glyph-name="user" d="M512 896c-247.424 0-448-200.576-448-448s200.576-448 448-448c247.424 0 448 200.576 448 448s-200.576 448-448 448zM360.405 191.488l-34.816 20.224 105.088-42.539-70.272 22.315zM737.92 266.709l-8.619-18.688c-2.603-4.224-5.205-7.936-8.107-11.477l-14.507-15.189-2.901-2.517c-3.883-3.285-7.552-6.101-11.435-8.789l-27.477-16.171c-2.816-1.408-4.992-2.432-7.253-3.456l-51.755-17.664-6.443 18.219 4.565-18.645-69.717-10.069-3.328 19.072 0.981-19.157-21.803-0.555-77.696 7.211-108.629 44.203-24.533 23.253c-1.195 1.493-1.877 2.389-2.56 3.243l-4.267 6.101-0.512 0.811c-8.107 12.843-12.587 26.453-13.355 40.448-0.085 1.323-0.128 2.731-0.128 4.139 0 56.448 61.227 104.491 154.069 122.283v0.341l11.52 2.176c2.645 8.363 4.181 14.848 4.907 19.115-5.675 3.157-9.216 6.187-15.061 13.696-7.339 9.472-26.837 45.184-31.659 71.125-4.693 10.581-13.44 31.659-14.336 43.52-0.725 9.429 2.176 17.024 6.571 22.613-6.613 43.477 0.384 78.677 20.907 104.747 21.931 27.861 53.547 38.016 75.861 41.643v1.365l20.437 0.64 22.485-1.152c68.224-5.035 86.016-18.731 93.653-30.379 0.341-0.512 0.64-1.024 0.939-1.536h16.725l-20.267-37.205c8.405-21.803 10.325-47.829 5.888-77.653 4.693-5.845 7.637-13.653 6.912-23.040-0.896-11.861-9.685-32.939-14.336-43.563-4.821-25.984-24.32-61.653-31.659-71.083-5.888-7.552-9.429-10.539-15.061-13.696 0.768-4.523 2.432-11.349 5.12-19.84l11.264-1.877v-1.067c89.557-18.645 148.608-66.219 148.608-121.173-0.085-8.107-1.408-16.299-4.011-24.32z" />
<glyph unicode="&#xe914;" glyph-name="rise" d="M796.416 767.659l-525.867-67.072c-22.229-2.859-27.947-17.621-12.757-32.811l173.227-173.227-226.901-226.901c-15.445-15.445-16.256-39.936-1.792-54.357l74.923-74.965c14.464-14.464 38.912-13.653 54.357 1.835l226.901 226.901 173.227-173.227c15.189-15.232 29.952-9.472 32.811 12.757l67.072 525.867c2.901 22.187-12.971 38.059-35.2 35.2z" />
<glyph unicode="&#xe915;" glyph-name="drop" d="M764.587 689.451c-2.859 22.229-17.621 27.989-32.811 12.757l-173.227-173.227-226.901 226.901c-15.445 15.445-39.936 16.256-54.357 1.792l-74.965-74.923c-14.464-14.464-13.653-38.912 1.835-54.357l226.901-226.901-173.227-173.227c-15.232-15.189-9.472-29.952 12.757-32.811l525.867-67.072c22.229-2.816 38.101 13.013 35.285 35.243l-67.157 525.824z" />
<glyph unicode="&#xe916;" glyph-name="smart" d="M230.56 748.16c6.976-10.4 20.704-12.672 30.72-5.088 9.728 7.584 12.224 22.112 4.992 32.512l-38.688 57.152c-6.976 10.4-20.736 12.672-30.464 5.088-9.984-7.584-12.224-22.144-5.248-32.544l38.688-57.12zM506.432 669.76l54.432 41.664c9.728 7.584 12.224 22.144 4.992 32.544-6.976 10.4-20.704 12.672-30.464 5.088l-54.432-41.696c-9.728-7.552-12.224-22.112-4.992-32.512 6.976-10.368 20.704-12.64 30.464-5.088zM391.072 779.872c5.984-0.992 11.744 0.672 16.224 4.192 4.736 3.488 8 8.864 8.992 15.2l10.976 69.856c1.984 12.704-5.984 24.576-17.984 26.56s-23.232-6.688-25.216-19.392l-10.976-69.856c-1.984-12.672 6.016-24.576 17.984-26.56zM959.776 231.744l-17.984 135.2c-5.984 46.272-22.976 90.784-48.416 128.576l-1.504 1.92c-28.704 42.496-71.136 72.416-119.328 84.16-48.416 11.776-99.104 4.672-143.040-20l-102.112-55.232-114.080 168.384c-27.2 39.968-80.128 48.768-118.336 19.616l-0.992-0.8c-37.952-29.184-46.944-85.408-19.712-125.408l183.488-270.4-123.808-30.048c-24.96-6.016-45.184-24.704-54.432-49.984-9.248-25.312-5.984-53.408 8.992-75.232l0.512-0.896c12.48-18.432 31.968-30.304 53.408-32.512l261.376-26.848 49.184-72.672c7.232-10.4 20.96-12.672 30.72-5.088 9.984 7.584 12.224 22.112 5.248 32.512l-55.168 81.12c-3.488 5.344-9.248 8.8-15.488 9.44l-271.104 27.872c-8.992 0.896-17.216 5.888-22.464 13.6l-0.512 0.928c-6.24 9.248-7.744 20.704-3.744 31.488 3.744 10.72 12.224 18.368 22.72 20.928l156.288 37.92c1.504 0.352 3.008 0.832 4.256 1.504 2.24 0.992 4 2.272 5.728 3.808 0 0.192 0.256 0.384 0.512 0.544 0.256 0.32 0.512 0.672 0.992 0.992 0.256 0.32 0.512 0.672 0.736 0.992 0.256 0.224 0.256 0.48 0.512 0.736 0.256 0.384 0.512 0.768 0.736 1.152 0.256 0.224 0.256 0.448 0.512 0.672 0.256 0.416 0.512 0.832 0.736 1.248 0 0.224 0.256 0.512 0.256 0.736 0.256 0.384 0.512 0.8 0.512 1.152 0.256 0.32 0.256 0.608 0.512 0.928 0 0.352 0.256 0.704 0.256 1.056 0.256 0.384 0.256 0.736 0.256 1.12 0.256 0.32 0.256 0.64 0.256 0.928 0.256 0.416 0.256 0.864 0.256 1.312 0 0.288 0.256 0.576 0.256 0.864v2.368c0.256 0.384 0.256 0.8 0.256 1.184 0 0.512-0.256 0.992-0.256 1.504v0.704c-0.256 2.304-0.736 4.576-1.76 6.72-0.512 1.472-1.248 2.816-2.24 4.096l-202.72 298.944c-12.992 19.232-8.736 46.336 9.472 60.384l1.248 0.8c18.208 14.048 43.68 9.792 56.672-9.44l122.56-180.544c0.512-0.704 0.992-1.344 1.504-1.952 5.728-10.592 18.24-14.624 28.704-8.928l119.072 64.448c0 0.064 0.256 0.096 0.256 0.16 71.136 39.968 160.032 18.272 206.688-50.432l1.248-1.92c21.728-31.808 35.712-69.216 40.928-108.128l17.984-135.2c1.76-12.704 12.736-21.44 24.704-19.52 3.744 0.576 6.976 2.080 9.728 4.192 6.464 4.928 10.208 13.408 8.96 22.272zM210.592 499.872l-54.432-41.696c-9.728-7.552-12.224-22.112-4.992-32.512 6.976-10.4 20.736-12.672 30.464-5.088l54.432 41.664c9.728 7.584 12.224 22.144 4.992 32.544-7.008 10.368-20.736 12.672-30.464 5.088zM164.416 597.696c4.736 3.488 8 8.864 8.992 15.2 1.984 12.704-5.984 24.576-17.984 26.56l-65.92 10.944c-11.968 1.952-23.232-6.688-25.216-19.392s5.984-24.608 17.984-26.592l65.92-10.912c5.984-1.024 11.712 0.64 16.224 4.192z" />
<glyph unicode="&#xe917;" glyph-name="removed" d="M512 896c-247.424 0-448-200.576-448-448s200.576-448 448-448 448 200.576 448 448-200.576 448-448 448zM783.52 176.48c-35.296-35.296-76.352-62.976-122.080-82.304-47.296-20-97.6-30.144-149.44-30.144s-102.144 10.144-149.44 30.144c-45.728 19.328-86.784 47.040-122.080 82.304s-62.976 76.352-82.304 122.080c-20 47.296-30.144 97.6-30.144 149.44s10.144 102.144 30.144 149.44c19.328 45.728 47.040 86.784 82.304 122.080s76.352 62.976 122.080 82.304c47.296 20 97.6 30.144 149.44 30.144s102.144-10.144 149.44-30.144c45.728-19.328 86.784-47.040 122.080-82.304s62.976-76.352 82.304-122.080c20-47.296 30.144-97.6 30.144-149.44s-10.144-102.144-30.144-149.44c-19.328-45.728-47.008-86.816-82.304-122.080zM680 480h-336c-13.184 0-24-14.4-24-32s10.816-32 24-32h336c13.184 0 24 14.4 24 32s-10.816 32-24 32z" />
<glyph unicode="&#xe918;" glyph-name="add" d="M512 896c-247.424 0-448-200.576-448-448s200.576-448 448-448 448 200.576 448 448-200.576 448-448 448zM783.52 176.48c-35.296-35.296-76.352-62.976-122.080-82.304-47.296-20-97.6-30.144-149.44-30.144s-102.144 10.144-149.44 30.144c-45.728 19.328-86.784 47.040-122.080 82.304s-62.976 76.352-82.304 122.080c-20 47.296-30.144 97.6-30.144 149.44s10.144 102.144 30.144 149.44c19.328 45.728 47.040 86.784 82.304 122.080s76.352 62.976 122.080 82.304c47.296 20 97.6 30.144 149.44 30.144s102.144-10.144 149.44-30.144c45.728-19.328 86.784-47.040 122.080-82.304s62.976-76.352 82.304-122.080c20-47.296 30.144-97.6 30.144-149.44s-10.144-102.144-30.144-149.44c-19.328-45.728-47.008-86.816-82.304-122.080zM680 480h-136v136c0 13.184-14.4 24-32 24s-32-10.816-32-24v-136h-136c-13.184 0-24-14.4-24-32s10.816-32 24-32h136v-136c0-13.184 14.4-24 32-24s32 10.816 32 24v136h136c13.184 0 24 14.4 24 32s-10.816 32-24 32z" />
<glyph unicode="&#xe919;" glyph-name="Details" d="M288 704h-192v-576h192v576zM224 192h-64v448h64v-448zM608 576h-192v-448h192v448zM544 192h-64v320h64v-320zM896 864h-192v-736h192v736zM832 192h-64v608h64v-608zM64 64h896v-64h-896v64z" />
<glyph unicode="&#xe91a;" glyph-name="edit" d="M896 448c-17.792 0-32-14.432-32-32.224v-351.776h-704v672h287.904c17.504 0 32.096 14.336 32.096 32 0 17.792-14.368 32-32.096 32h-319.904c-17.792 0-32-14.272-32-31.84v-736.288c0-3.296 0.96-6.336 1.92-9.344 3.616-11.488 13.28-19.712 25.44-21.568 1.568-0.256 3.008-0.96 4.64-0.96 0.032 0 0.032 0 0.064 0s0.032 0 0.064 0h767.872c8.864 0 16.832 3.584 22.592 9.376 5.792 5.824 9.408 13.824 9.408 22.624v383.744c0 17.856-14.336 32.256-32 32.256zM387.872 298.432h135.776l429.824 429.824-135.776 135.776-429.824-429.824v-135.776zM451.872 407.68l365.824 365.824 45.248-45.248-365.824-365.824h-45.248v45.248z" />
<glyph unicode="&#xe91b;" glyph-name="del" d="M928.096 768h-256.096v96.288c0 17.28-14.272 31.712-31.84 31.712h-256.288c-17.28 0-31.84-14.208-31.84-31.712v-96.288h-256.096c-17.824 0-31.904-14.336-31.904-32 0-17.792 14.272-32 31.904-32h32.064v-640.064c0-35.328 28.736-63.936 64.16-63.936h639.68c35.456 0 64.16 28.64 64.16 63.936v640.064h32.096c17.824 0 31.904 14.336 31.904 32 0 17.792-14.272 32-31.904 32zM416 832h192v-64h-192v64zM832 100.8c0-17.664-14.56-31.968-31.744-31.968h-576.512c-17.536 0-31.744 14.432-31.744 31.968v603.2h640v-603.2zM320 544h64v-320h-64v320zM480 576h64v-384h-64v384zM640 544h64v-320h-64v320z" />
<glyph unicode="&#xe91c;" glyph-name="top" d="M864 832h-704c-17.664 0-32-14.336-32-32s14.336-32 32-32h704c17.664 0 32 14.336 32 32s-14.336 32-32 32zM534.624 694.624c-2.944 2.944-6.496 5.28-10.4 6.912-4.416 1.824-9.12 2.4-13.824 2.144-8.736 0.448-17.568-2.4-24.224-9.056l-316.768-316.768c-12.512-12.512-12.512-32.736 0-45.248 6.24-6.24 14.432-9.376 22.624-9.376s16.384 3.136 22.624 9.376l265.376 265.376v-565.984c0-17.696 14.336-32 32-32s32 14.304 32 32v562.752l262.144-262.144c6.24-6.24 14.432-9.376 22.624-9.376s16.384 3.136 22.624 9.376c12.512 12.512 12.512 32.736 0 45.248l-316.8 316.768z" />
<glyph unicode="&#xe91d;" glyph-name="search" d="M956.768 48.48l-270.336 270.336c50.88 61.056 81.536 139.52 81.536 225.216 0 194.432-157.6 352-352 352-194.432 0-352-157.6-352-352 0-194.432 157.6-352 352-352 85.696 0 164.16 30.656 225.216 81.536l270.336-270.336c6.24-6.24 14.432-9.376 22.624-9.376s16.384 3.136 22.624 9.376c12.512 12.48 12.512 32.736 0 45.248zM416 256c-159.072 0-288 128.896-288 288 0 159.072 128.896 288 288 288 159.072 0 288-128.896 288-288 0-159.072-128.896-288-288-288z" />
<glyph unicode="&#xe91e;" glyph-name="analytics" d="M896 64v448h-192v-448h-64v768h-192v-768h-64v320h-192v-320h-64v832h-64v-896h896v64h-64zM320 64h-64v256h64v-256zM576 64h-64v704h64v-704zM832 64h-64v384h64v-384z" />
<glyph unicode="&#xe91f;" glyph-name="insight" d="M992.288 480h-33.408c-15.648 221.92-192.96 399.2-414.88 414.88v33.408c0 17.28-14.336 31.712-32 31.712-17.792 0-32-14.208-32-31.712v-33.408c-221.92-15.648-399.2-192.96-414.88-414.88h-33.408c-17.28 0-31.712-14.336-31.712-32 0-17.792 14.208-32 31.712-32h33.408c15.648-221.92 192.96-399.2 414.88-414.88v-33.408c0-17.28 14.336-31.712 32-31.712 17.792 0 32 14.208 32 31.712v33.408c221.92 15.648 399.2 192.96 414.88 414.88h33.408c17.28 0 31.712 14.336 31.712 32 0 17.792-14.208 32-31.712 32zM863.712 416h30.976c-15.392-186.56-164.128-335.296-350.688-350.688v30.976c0 17.28-14.336 31.712-32 31.712-17.792 0-32-14.208-32-31.712v-30.976c-186.56 15.392-335.296 164.128-350.688 350.688h30.976c17.28 0 31.712 14.336 31.712 32 0 17.792-14.208 32-31.712 32h-30.976c15.392 186.56 164.128 335.296 350.688 350.688v-30.976c0-17.28 14.336-31.712 32-31.712 17.792 0 32 14.208 32 31.712v30.976c186.56-15.392 335.296-164.128 350.688-350.688h-30.976c-17.28 0-31.712-14.336-31.712-32 0-17.792 14.208-32 31.712-32zM512 704c-141.376 0-256-114.624-256-256s114.624-256 256-256 256 114.624 256 256-114.624 256-256 256zM512 256c-106.048 0-192 85.952-192 192s85.952 192 192 192 192-85.952 192-192-85.952-192-192-192zM512 544c-53.024 0-96-42.976-96-96s42.976-96 96-96 96 42.976 96 96-42.976 96-96 96zM512 416c-17.664 0-32 14.336-32 32s14.336 32 32 32 32-14.336 32-32-14.336-32-32-32z" />
<glyph unicode="&#xe920;" glyph-name="push" d="M949.312 887.872c-9.056 8.096-21.984 10.336-33.28 5.792l-832-335.456c-11.488-4.64-19.264-15.456-20-27.84-0.704-12.384 5.792-24.032 16.672-29.952l238.912-129.952c15.52-8.416 34.944-2.688 43.392 12.832s2.688 34.944-12.832 43.392l-179.328 97.504 621.568 250.624-436.992-426.784c-4.64-4.544-7.776-10.368-9.024-16.704l-57.856-293.152c-3.424-17.344 7.872-34.144 25.216-37.6 2.080-0.416 4.16-0.608 6.208-0.608 14.976 0 28.352 10.56 31.36 25.824l55.936 283.392 16.128 15.744 303.936-161.248c4.672-2.464 9.856-3.712 15.008-3.712 4.32 0 8.64 0.864 12.672 2.624 8.896 3.808 15.584 11.488 18.176 20.832l185.632 672c3.264 11.808-0.448 24.352-9.504 32.448zM722.144 238.976l-250.624 132.96 393.536 384.384-142.912-517.344z" />
<glyph unicode="&#xe921;" glyph-name="Toolbox" d="M960 734.24h-256v64.864c0 35.808-28.672 64.864-64 64.864h-256c-35.328 0-64-29.056-64-64.864v-64.864h-256c-35.328 0-64-29.056-64-64.864v-583.84c0-35.808 28.672-64.864 64-64.864h896c35.328 0 64 29.056 64 64.864v583.84c0 35.808-28.672 64.864-64 64.864zM384 799.136h256v-64.864h-256v64.864zM64 669.376h896v-129.76h-896v129.76zM640 474.752v-64.864h-256v64.864h256zM960 85.536h-896v389.248h256v-64.864c0-35.808 28.672-64.864 64-64.864h256c35.328 0 64 29.056 64 64.864v64.864h256v-389.248z" />
<glyph unicode="&#xe922;" glyph-name="management" d="M951.808 155.808l-252 252c-10.912 10.944-28.672 10.944-39.584 0l-22.208-22.208-44.416 44.416 98.016 98.016h44.384c109.92 0 168 67.776 168 196 0 9.696-5.024 18.72-13.28 23.808-8.256 5.12-18.56 5.568-27.232 1.216l-93.952-46.976-27.456 27.456 46.976 93.952c4.32 8.672 3.872 19.008-1.216 27.232-5.088 8.256-14.112 13.28-23.84 13.28-128.224 0-196-58.080-196-168v-44.416l-97.984-97.984-156.416 156.416 22.208 22.208c6.080 6.112 9.056 14.656 8 23.232-1.056 8.544-5.984 16.16-13.376 20.576l-140 84c-11.008 6.624-25.12 4.864-34.208-4.224l-28-28c-9.088-9.088-10.816-23.2-4.224-34.208l84-140c4.448-7.392 12.032-12.352 20.576-13.376 1.152-0.16 2.272-0.224 3.424-0.224 7.392 0 14.528 2.912 19.808 8.192l22.208 22.208 156.416-156.416-330.208-330.208c-3.072-3.072-5.376-6.816-6.752-10.944l-28-84c-3.36-10.048-0.736-21.152 6.752-28.672l28-28c5.344-5.344 12.48-8.192 19.808-8.192 2.944 0 5.952 0.48 8.832 1.44l84 28c4.128 1.376 7.872 3.68 10.944 6.784l330.208 330.208 44.416-44.416-22.208-22.208c-10.944-10.944-10.944-28.672 0-39.584l252-252c5.472-5.472 12.64-8.192 19.808-8.192s14.336 2.752 19.808 8.192l84 84c10.88 10.944 10.88 28.672-0.032 39.616zM237.568 713.152l-49.92 83.2 83.2-49.92-33.28-33.28zM188.864 104.48l-61.312-20.448-3.52 3.52 20.448 61.312 471.328 471.328c5.248 5.248 8.192 12.384 8.192 19.808v56c0 47.392 12.192 95.712 93.024 108.64l-34.048-68.128c-5.376-10.784-3.264-23.808 5.248-32.32l56-56c8.512-8.544 21.568-10.624 32.32-5.248l68.128 34.080c-12.96-80.832-61.248-93.024-108.64-93.024h-56c-7.424 0-14.56-2.944-19.808-8.192l-471.36-471.328zM848 91.584l-212.416 212.416 44.416 44.416 212.384-212.416-44.384-44.416z" />
<glyph unicode="&#xe923;" d="M160 394.976l181.024 181.024z" />
<glyph unicode="&#xe924;" d="M160 349.728l166.208 166.24c8.256-2.304 16.8-3.936 25.792-3.936 14.784 0 28.64 3.616 41.152 9.6l120.576-120.576c-0.992-5.536-1.728-11.2-1.728-17.024 0-53.024 42.976-96 96-96s96 42.976 96 96c0 8.992-1.632 17.536-3.936 25.76l106.176 106.176c8.256-2.304 16.768-3.936 25.76-3.936 53.024 0 96 42.976 96 96s-42.976 96-96 96-96-42.976-96-96c0-20.32 6.4-39.104 17.152-54.624l-90.56-90.56c-15.488 10.752-34.272 17.152-54.592 17.152-23.136 0-44.064-8.512-60.608-22.112l-108.96 108.96c5.984 12.512 9.6 26.368 9.6 41.152 0 53.024-42.976 96-96 96s-96-42.976-96-96c0-20.32 6.4-39.104 17.152-54.592l-113.152-113.184v423.776h-64v-832h832v64h-768v253.728z" />
<glyph unicode="&#xe925;" glyph-name="form" d="M96 864v-832h832v832h-832zM480 96h-320v192h320v-192zM480 352h-320v192h320v-192zM480 608h-320v192h320v-192zM864 96h-320v192h320v-192zM864 352h-320v192h320v-192zM864 608h-320v192h320v-192z" />
<glyph unicode="&#xe926;" glyph-name="reports" d="M850.048 874.667h-676.096c-49.237 0-88.619-39.381-88.619-88.619v-676.096c0-49.237 39.381-88.619 88.619-88.619h676.096c49.237 0 88.619 39.381 88.619 88.619v676.096c0 49.237-39.381 88.619-88.619 88.619zM597.333 192h-341.333v85.333h341.333v-85.333zM768 405.333h-512v85.333h512v-85.333zM768 618.667h-512v85.333h512v-85.333z" />
<glyph unicode="&#xe927;" glyph-name="date" d="M830.763 832h-71.936v-140.8h-71.936v140.8h-353.109v-140.8h-71.936v140.8h-71.936c-62.123 0-104.619-41.6-104.619-105.6v-608c0-60.8 52.309-54.4 114.432-54.4h624.469c62.123 0 114.432-6.4 114.432 54.4v608c-3.243 64-45.739 105.6-107.861 105.6zM863.488 134.4h-709.461v419.2h709.461v-419.2zM650.965 483.2h140.587v-105.6h-140.587v105.6zM438.443 483.2h140.587v-105.6h-140.587v105.6zM225.92 483.2h140.587v-105.6h-140.587v105.6zM650.965 307.2h140.587v-105.6h-140.587v105.6zM438.443 307.2h140.587v-105.6h-140.587v105.6zM225.92 307.2h140.587v-105.6h-140.587v105.6z" />
<glyph unicode="&#xe928;" glyph-name="funnel" d="M512 874.667c-58.889 0-114.305-3.472-166.25-10.417s-97.222-16.528-135.833-28.75c-38.611-12.222-69.028-26.389-91.25-42.5s-33.333-33.333-33.333-51.667v-80l320-320v-266.667c0-15 10.417-27.639 31.25-37.917s45.972-15.417 75.417-15.417c29.445 0 54.583 5.139 75.417 15.417s31.25 22.917 31.25 37.917v266.667l320 320v80c0 18.333-11.111 35.555-33.333 51.667s-52.639 30.278-91.25 42.5c-38.611 12.222-83.889 21.806-135.833 28.75s-107.361 10.417-166.25 10.417zM163.667 758.833c10 5.556 21.944 11.111 35.833 16.667s29.167 10.556 45.833 15c18.333 5 37.917 9.444 58.75 13.333s42.5 7.083 65 9.583c22.5 2.5 45.833 4.444 70 5.833s48.472 2.083 72.917 2.083c24.445 0 48.75-0.694 72.917-2.083s47.5-3.333 70-5.833c22.5-2.5 44.167-5.694 65-9.583s40.417-8.333 58.75-13.333c16.667-4.444 31.944-9.444 45.833-15s25.833-11.111 35.833-16.667c6.111-3.889 11.111-7.361 15-10.417s6.667-5.417 8.333-7.083c-1.667-1.667-4.444-4.028-8.333-7.083s-8.889-6.528-15-10.417c-10-5.556-21.944-11.111-35.833-16.667s-29.167-10.556-45.833-15c-18.333-5-37.917-9.444-58.75-13.333s-42.5-7.083-65-9.583c-22.5-2.5-45.833-4.444-70-5.833s-48.472-2.083-72.917-2.083c-24.445 0-48.75 0.694-72.917 2.083s-47.5 3.333-70 5.833c-22.5 2.5-44.167 5.694-65 9.583s-40.417 8.333-58.75 13.333c-16.667 4.444-31.944 9.444-45.833 15s-25.833 11.111-35.833 16.667c-6.111 3.889-11.111 7.361-15 10.417s-6.667 5.417-8.333 7.083c1.667 1.667 4.444 4.028 8.333 7.083s8.889 6.528 15 10.417z" />
<glyph unicode="&#xe929;" glyph-name="help" d="M469.949 191.59h84.145v86.154h-84.145v-86.154zM512 874.667c236.368 0 426.667-190.299 426.667-426.667s-190.299-426.667-426.667-426.667c-236.368 0-426.667 190.299-426.667 426.667s190.299 426.667 426.667 426.667v0zM512 105.436c188.291 0 342.564 154.231 342.564 342.564s-154.231 342.564-342.564 342.564c-188.333 0-342.564-154.231-342.564-342.564s154.231-342.564 342.564-342.564v0zM512 704.41c94.145 0 170.256-76.111 170.256-170.256 0-106.154-128.205-118.205-128.205-214.359h-84.145c0 138.205 128.205 128.205 128.205 214.359 0 46.068-40.085 84.145-86.154 84.145s-86.154-38.077-86.154-84.145h-84.145c0 94.145 76.111 170.256 170.256 170.256h0.085z" />
<glyph unicode="&#xe92a;" glyph-name="IOS" d="M430.012 687.147c39.042-10.679 90.356-51.441 161.17-14.239 59.401 31.162 154.336 33.672 261.281-57.365 9.639-8.141 28.702-32.709 0-50.449 0 0-69.151-44.935-73.072-114.962-2.068-36.473-7.645-98.798 44.809-143.732 0 0 28.742-25.006 53.677-35.831 0 0 32.172-15.756 10.785-50.42 0 0-49.464-108.456-132.765-186.42-30.109-28.215-83.928-44.672-160.872-11.117 0 0-69.378 40.237-150.387-7.353 0 0-59.101-42.659-139.744 14.677 0 0-88.030 37.261-154.225 247.986-33.21 105.684-34.909 227.853 28.776 312.179 40.526 53.717 124.306 131.565 250.567 97.047zM644.93 733.716c-51.901-60.253-130.584-75.368-151.156-61.187-18.402 12.693-11.673 95.588 40.225 155.841 51.938 60.224 131.88 77.935 147.502 62.179 17.103-17.069 15.256-96.638-36.571-156.833z" />
<glyph unicode="&#xe92b;" glyph-name="FlashAir" d="M866.987 314.88c0 0-132.992 132.437-87.296 332.629 7.211 18.091 11.179 37.888 11.179 58.581 0 87.211-70.315 157.909-157.013 157.909-70.528 0-130.176-46.72-150.016-111.104-0.981-3.2-1.877-6.4-2.645-9.685-12.629-42.709-74.283-214.528-258.731-260.437-72.107-14.293-126.464-78.208-126.464-154.923 0-87.211 70.315-157.909 157.013-157.909 7.211 0 14.293 0.512 21.205 1.451 10.667 1.451 20.992 3.968 30.848 7.467 66.176 12.971 225.92 27.691 348.629-93.909 28.757-32.469 70.613-52.907 117.291-52.907 86.699 0 157.013 70.699 157.013 157.909 0 50.816-23.936 96.043-61.013 124.928zM551.381 252.587c-85.888 0-155.477 70.016-155.477 156.373s69.632 156.373 155.477 156.373c85.845 0 155.477-70.016 155.477-156.373s-69.632-156.373-155.477-156.373z" />
<glyph unicode="&#xe92c;" glyph-name="Android" d="M642.475 837.333l43.733 51.115c0.939 1.152-0.469 3.755-3.072 5.845-2.603 1.877-5.675 2.347-6.4 0.939l-45.397-53.205c-32.128 12.587-71.381 20.523-119.595 20.523-48.469 0.213-87.936-7.467-120.064-19.84l-44.928 52.267c-0.939 1.152-3.797 0.939-6.4-0.939s-4.011-4.181-3.072-5.845l43.264-50.389c-113.92-48.768-130.944-168.448-133.291-203.435h528.512c-2.091 35.2-18.901 153.259-133.291 202.965zM395.691 721.152c-17.493 0-31.915 13.995-31.915 31.019s14.165 31.019 31.915 31.019c17.493 0 31.915-13.995 31.915-31.019s-14.165-31.019-31.915-31.019zM628.309 721.152c-17.493 0-31.915 13.995-31.915 31.019s14.165 31.019 31.915 31.019c17.493 0 31.915-13.995 31.915-31.019s-14.464-31.019-31.915-31.019zM152.747 634.581c-31.445 0-56.747-24.96-56.747-55.979v-223.957c0-31.019 25.301-55.979 56.747-55.979s56.747 24.96 56.747 55.979v223.957c-0.043 31.019-25.344 55.979-56.747 55.979zM871.253 634.581c-31.445 0-56.747-24.96-56.747-55.979v-223.957c0-31.019 25.301-55.979 56.747-55.979s56.747 24.96 56.747 55.979v223.957c0 31.019-25.301 55.979-56.747 55.979zM247.253 419.029v-209.024c0-16.085 10.624-32.683 26.965-32.683h67.584v-121.301c0-31.019 25.301-55.979 56.747-55.979s56.747 24.96 56.747 55.979v121.301h115.797v-121.301c0-17.493 8.021-33.109 20.779-43.392 9.216-7.936 21.504-12.587 34.731-12.587h1.195c31.445 0 56.747 24.96 56.747 55.979v121.301h65.237c16.555 0 26.965 16.555 26.965 32.427v387.499h-529.451v-178.219z" />
<glyph unicode="&#xe92d;" glyph-name="Cocos2D-x" d="M373.035 354.645c-58.496-14.123-88.363-68.693-77.483-130.645 18.347-48.896 71.851-84.224 116.224-74.667 58.539 14.123 88.363 68.693 77.483 130.645-18.304 48.896-71.851 84.267-116.224 74.667zM411.776 205.312c-6.357 0-19.371 12.544-19.371 37.333 0 6.144 13.013 18.688 19.371 18.688 25.728 0 38.741-12.544 38.741-18.688 0-24.789-13.013-37.333-38.741-37.333zM663.595 354.645c-44.331 9.557-97.877-25.771-116.224-74.667-10.923-61.995 18.944-116.523 77.483-130.645 44.331-9.557 97.877 25.771 116.224 74.667 10.88 61.995-18.987 116.523-77.483 130.645zM624.853 205.312c-6.4 0-19.371 12.544-19.371 37.333 0 6.144 12.971 18.688 19.371 18.688 25.728 0 38.741-12.544 38.741-18.688 0-24.789-13.013-37.333-38.741-37.333zM837.888 279.979c-0.469 7.979 33.835 172.928-77.483 392.021 7.040-8.533-10.112-43.392-19.371-55.979 9.259-4.821-105.003 166.571-309.888 279.979 0.683 0 16.384-83.669 19.371-93.355 2.731-1.067-190.080-133.845-232.405-317.355l-58.112 55.979c1.92 2.773-2.389-143.531 0-168.021 6.187-39.765 39.040-294.528 271.147-354.645 213.461-68.608 369.152 92.331 464.853 279.979l-58.112-18.603zM431.147 130.645c-62.635-11.52-128.512 38.997-154.965 112-14.336 79.104 18.475 151.936 77.483 168.021 62.677 11.52 128.512-38.997 154.965-112 14.336-79.104-18.432-151.936-77.483-168.021zM779.776 242.688c-26.453-73.003-92.288-123.52-154.965-112-59.008 16.043-91.819 88.875-77.483 168.021 26.453 73.003 92.288 123.52 154.965 112 59.051-16.085 91.819-88.917 77.483-168.021z" />
<glyph unicode="&#xe92e;" glyph-name="Unity3D" d="M928 536.32l-90.624 327.68-331.179-90.667-54.528-93.568 265.301 58.709-148.864-256.341-300.928 1.792 184.533 195.84-109.952 0.512-245.675-235.819 244.224-240.768 103.040-1.109 47.317-83.84 342.613-86.784 94.635 334.208-50.432 82.091 50.517 88.064zM447.829 210.944l-180.053 180.053-0.384 13.056 294.016-0.128 152.533-258.944-266.112 65.963zM793.088 189.781l-152.533 258.944 146.859 249.6 11.349-6.869 69.077-242.859-74.752-258.816z" />
<glyph unicode="&#xe92f;" glyph-name="mini-program" d="M769.813 874.667c-140.375 0-254.187-111.722-254.187-249.555 0-2.475 0.203-342.324 0.288-343.653-5.583-67.771-63.259-121.090-133.726-121.090-74.172 0-134.284 59.033-134.284 131.837 0 65.86 49.183 120.442 113.44 130.259l-0.034 0.299c31.587 1.678 56.729 27.158 56.729 58.602 0 32.556-26.833 58.934-59.943 58.934-3.113 0-6.108-0.448-9.102-0.897-1.32-0.183-2.639-0.415-3.959-0.598-122.712-17.69-217.034-121.19-217.034-246.598 0-137.817 113.812-249.539 254.187-249.539 133.066 0 242.073 100.443 253.088 228.294 1.218 4.651 1.353 351.095 0.321 355.43 0.694 72.222 60.485 130.558 134.216 130.558 74.155 0 134.284-59.017 134.284-131.837 0-68.784-53.649-125.259-122.12-131.289l0.017-0.133c-27.391-5.432-48.032-29.218-48.032-57.754 0-32.54 26.833-58.934 59.943-58.934 2.944 0 5.769 0.448 8.595 0.864 1.557 0.216 3.113 0.349 4.619 0.698 122.644 17.757 216.881 121.206 216.881 246.549 0 137.833-113.812 249.555-254.187 249.555z" />
<glyph unicode="&#xe930;" glyph-name="Html5" d="M128 864l69.92-748.809 313.888-83.191 314.176 83.145 70.016 748.855h-768zM744.256 619.127h-368.032l8.736-94.041h350.56l-26.368-282.026-197.312-52.216-197.056 52.216-13.76 147.523h96.576l7.168-76.519 107.2-27.638 107.232 27.678 11.232 119.109h-333.408l-25.952 277.719h481.824l-8.64-91.803z" />
<glyph unicode="&#xe931;" glyph-name="PhoneGap" d="M380.032 244.096c-0.981-0.085-1.963-0.085-2.987-0.085-19.456 0-39.424 14.763-39.424 34.432v342.955c0 19.669 18.133 35.157 37.419 35.157 0.981 0 2.005-0.043 2.944-0.128l57.301-4.608-3.627 110.379-63.616 8.064c-3.115 0.384-6.187 0.555-9.216 0.555-37.376 0-68.139-29.099-68.139-68.096v-515.115c0-38.912 31.488-67.2 68.864-67.2 3.157 0 6.315 0.213 9.472 0.64l83.285 10.581-3.883 117.803-68.395-5.333zM890.923 733.909c0 0 2.389 83.115-69.077 95.019-71.424 11.947-262.443 31.659-262.443 31.659s-11.179 3.413-25.813 3.413c-28.928 0-71.253-13.483-66.261-93.909 7.467-121.003 18.432-655.915 18.432-655.915s-0.555-82.176 70.741-82.176c3.797 0 7.851 0.213 12.117 0.768 83.541 9.771 294.656 49.749 294.656 49.749s69.333 7.765 64.469 85.973c-4.864 78.208-36.821 565.419-36.821 565.419zM881.707 299.648c-1.835-66.304-42.709-67.84-45.909-67.84h-0.128c-1.92-0.341-163.755-27.392-233.685-27.392-3.712 0-7.211 0.085-10.368 0.213-62.933 3.243-59.861 76.885-59.861 76.885s-2.987 263.979-9.216 361.899c-4.352 68.523 33.451 78.763 56.576 78.763 9.899 0 17.109-1.877 17.109-1.877s126.251-9.984 197.973-13.568c71.723-3.627 69.035-81.451 69.035-81.451s20.352-256.683 18.475-325.632zM233.728 310.997c-0.427-0.043-0.896-0.043-1.365-0.043-13.653 0-22.229 10.539-22.229 24.235v235.008c0 13.696 8.235 24.747 21.888 24.747 0.469 0 0.896-0.043 1.365-0.043l24.576-1.323-1.707 76.501-34.133 2.773c-1.451 0.128-2.901 0.171-4.352 0.171-27.179 0-47.915-21.077-47.915-48.341v-350.549c0-27.221 21.76-47.744 49.024-47.744 1.451 0 2.944 0.043 4.437 0.171l42.837 3.541-1.877 82.432-30.549-1.536zM129.579 378.283c-7.424 0-13.44 5.888-13.44 13.184v118.699c0 7.296 6.016 13.227 13.44 13.227h18.048l-0.171 39.552h-24.619c-14.891-0.043-26.837-11.819-26.837-26.368v-178.048c0-14.549 12.032-26.368 26.837-26.368h25.557l-0.171 46.165h-18.645z" />
<glyph unicode="&#xe932;" glyph-name="question" d="M506.197 874.626c-235.558-3.009-424.047-196.656-420.823-432.429 3.009-235.558 196.656-424.047 432.429-420.823 235.558 3.009 424.047 196.656 420.823 432.429-3.009 235.558-196.656 424.047-432.429 420.823zM498.894 181.333l-2.502 0.23c-38.433 1.151-65.495 29.706-64.358 67.933 0.91 37.766 28.654 65.17 65.722 65.17l2.274-0.23c39.57-1.151 66.405-29.476 65.268-68.854-1.137-37.766-28.427-64.249-66.405-64.249zM673.322 495.719c-8.815-12.164-27.989-27.368-52.231-46.048l-26.667-18.246c-14.766-11.078-23.581-21.721-26.887-32.147-2.645-8.254-3.967-10.426-4.187-26.934v-4.344h-102.039l0.441 8.471c1.102 34.971 1.983 55.606 16.749 72.548 23.14 26.717 73.829 59.081 76.033 60.384 7.273 5.43 13.444 11.512 18.072 18.246 10.799 14.336 15.427 25.848 15.427 37.143 0 15.639-4.628 29.975-13.884 42.79-9.036 12.598-26.006 18.68-50.468 18.68s-40.992-7.602-51.129-23.024c-10.138-16.074-15.427-33.016-15.427-50.175v-4.344h-105.124l0.22 4.344c2.645 63.642 25.785 109.256 68.32 135.973 26.667 16.942 59.945 25.631 98.953 25.631 50.909 0 93.664-12.164 127.603-36.274 34.16-24.327 51.57-60.819 51.57-108.388 0-26.5-8.595-51.479-25.344-74.286z" />
<glyph unicode="&#xe933;" glyph-name="revoke" d="M927.783 166.295c0 37.137 7.8 183.695-105.517 299.968-76.267 78.253-173.983 118.042-310.483 124.232v177.505l-415.783-282.947 416-282.947v176.4c86.667-2.432 135.2-20.116 187.85-44.211 66.95-30.505 119.817-97.263 164.233-169.326l41.6-68.968h22.317c0 22.326-0.217 50.621-0.217 70.295z" />
<glyph unicode="&#xe934;" glyph-name="sdk" d="M100.605 651.333l375.853-181.556c9.774-4.667 22.88-7.111 35.764-7.111s25.99 2.444 35.764 7.111l375.853 181.556c19.77 9.556 19.77 25.111 0 34.667l-375.853 181.556c-9.774 4.667-22.88 7.111-35.764 7.111s-25.99-2.444-35.764-7.111l-375.853-181.556c-19.77-9.556-19.77-25.111 0-34.667zM923.839 465.333c0 0-68.64 33.111-77.747 37.556s-11.551 4.222-21.103-0.222c-9.552-4.444-277.225-133.778-277.225-133.778-9.996-4.667-22.88-7.111-35.764-7.111s-25.99 2.444-35.764 7.111c0 0-260.565 125.778-272.782 131.778-13.328 6.444-17.104 6.444-29.1 0.667-12.44-6-74.193-35.778-74.193-35.778-19.77-9.556-19.77-25.111 0-34.667l375.853-181.556c9.774-4.667 22.88-7.111 35.764-7.111s25.99 2.444 35.764 7.111l375.853 181.556c20.214 9.333 20.214 24.889 0.444 34.444zM923.839 244.667c0 0-68.64 33.111-77.747 37.556s-11.551 4.222-21.103-0.222c-9.552-4.444-277.003-134-277.003-134-9.996-4.667-22.88-7.111-35.764-7.111s-25.99 2.444-35.764 7.111c0 0-260.565 125.778-272.782 131.778-13.328 6.444-17.104 6.444-29.1 0.667-12.44-6-74.193-35.778-74.193-35.778-19.77-9.556-19.77-25.111 0-34.667l375.853-181.556c9.774-4.889 22.88-7.111 35.764-7.111s25.99 2.444 35.764 7.111l375.853 181.556c19.992 9.556 19.992 25.111 0.222 34.667z" />
<glyph unicode="&#xe935;" glyph-name="set" d="M511.999 265.144c-101.257 0-182.857 82.057-182.857 182.857 0 100.802 81.6 182.857 182.857 182.857 101.255 0 182.857-82.055 182.857-182.857 0-100.8-81.602-182.857-182.857-182.857zM868.329 447.899c-0.002 46.695 29.207 86.551 70.335 102.36-10.86 45.48-28.793 88.222-52.587 126.975-14.167-6.302-29.4-9.453-44.627-9.453-28.047 0-56.084 10.691-77.491 32.093-33.029 33.029-40.551 81.88-22.622 122.155-38.744 23.809-81.473 41.76-126.953 52.638-15.784-41.175-55.66-70.422-102.386-70.422-46.722 0-86.598 29.247-102.384 70.422-45.48-10.878-88.206-28.829-126.951-52.64 17.929-40.271 10.407-89.12-22.624-122.155-21.402-21.402-49.444-32.095-77.491-32.095-15.231 0-30.458 3.153-44.629 9.456-23.791-38.751-41.729-81.491-52.587-126.973 41.131-15.804 70.338-55.664 70.338-102.36 0-46.684-29.182-86.524-70.289-102.342 10.884-45.48 28.835-88.204 52.649-126.951 14.136 6.269 29.329 9.404 44.515 9.404 28.049 0 56.087-10.693 77.491-32.095 32.98-32.98 40.531-81.735 22.7-121.975 38.751-23.8 81.475-41.74 126.955-52.607 15.84 41.064 55.658 70.213 102.306 70.213s86.466-29.144 102.304-70.213c45.484 10.867 88.206 28.809 126.96 52.611-17.829 40.235-10.28 88.991 22.702 121.971 21.398 21.404 49.44 32.098 77.484 32.098 15.191 0 30.378-3.136 44.518-9.407 23.813 38.747 41.764 81.471 52.649 126.951-41.107 15.82-70.286 55.662-70.286 102.342z" />
<glyph unicode="&#xe936;" glyph-name="shake" d="M889.903 229.466c0.888 8.93-5.676 16.885-14.658 17.767-3.12 0.304-6.12-0.279-8.744-1.553-4.938-2.383-8.548-7.186-9.132-13.021-3.931-39.533-26.718-75.176-60.946-95.357-7.768-4.576-10.33-14.543-5.723-22.261s14.632-10.266 22.4-5.685c43.143 25.428 71.855 70.331 76.803 120.11v0zM945.214 240.986c-3.099 0.294-6.084-0.294-8.698-1.553-4.953-2.394-8.569-7.222-9.137-13.068-5.991-61.902-41.583-117.68-95.221-149.221-7.768-4.571-10.34-14.533-5.749-22.256 4.602-7.723 14.606-10.271 22.395-5.711 62.589 36.804 104.13 101.883 111.118 174.077 0.863 8.935-5.723 16.875-14.71 17.731v0zM299.907 829.339c-47.109-17.107-83.646-55.99-97.726-104.014-2.526-8.615 2.453-17.633 11.12-20.146 3.006-0.872 6.064-0.841 8.879-0.077 5.294 1.444 9.736 5.505 11.389 11.133 11.177 38.14 40.173 69.011 77.557 82.584 8.481 3.080 12.84 12.407 9.746 20.837-3.099 8.424-12.484 12.763-20.964 9.683v0zM145.682 724.118c2.996-0.862 6.033-0.831 8.837-0.067 5.31 1.45 9.762 5.53 11.399 11.174 17.344 59.745 62.661 108.069 121.216 129.262 8.481 3.070 12.856 12.392 9.767 20.821-3.089 8.435-12.453 12.773-20.949 9.709-68.337-24.727-121.211-81.098-141.447-150.785-2.5-8.621 2.5-17.628 11.177-20.115v0zM507.837 137.369c-24.678-6.722-50.172 7.713-56.938 32.238l-78.745 285.515c14.374-2.518 35.752-2.626 35.752-2.626l50.849-184.354c4.509-16.354 21.502-25.975 37.957-21.497l105.969 28.88c0.046-0.181 0.083-0.356 0.134-0.531 1.41-5.118 3.383-9.936 5.805-14.429-15.805-5.577-24.833-22.415-20.329-38.754 4.721-17.112 22.504-27.187 39.724-22.493 13.093 3.565 22.080 14.636 23.568 27.26 11.631-3.168 24.234-3.384 36.707 0.015l99.317 27.058c0.687 0.186 1.358 0.402 2.040 0.609 2.407-22.080-11.58-43.263-33.82-49.324l-247.989-67.566zM319.276 515.765l91.827-332.956-86.265-121.503c0 0-23.847-36.448-54.65-14.894l-30.804 21.559-124.583 107.563c0 0-24.564 26.254-1.782 47.431l22.783 21.182c0 0 59.392 46.879 76.317 61.974 16.931 15.095 54.263 43.613 30.788 101.419-23.48 57.806-24.766 67.938-24.978 85.101s15.2 67.783 26.005 88.697c0 0 17.85 29.039 44.744 46.394 9.54 6.088 19.183 9.668 26.501 11.241 14.183 2.533 27.049-1.372 37.998-7.14 1.57-0.604 3.962-1.785 6.978-3.41 0.408-0.222 0.832-0.449 1.265-0.686 0.32-0.175 0.635-0.351 0.966-0.531 0.32-0.175 0.646-0.356 0.971-0.542 0.32-0.175 0.64-0.356 0.966-0.542 0.341-0.191 0.682-0.377 1.028-0.578 0.387-0.217 0.785-0.444 1.178-0.671 0.584-0.335 1.183-0.676 1.792-1.027 0.336-0.196 0.677-0.392 1.017-0.588 0.418-0.248 0.842-0.49 1.271-0.743 0.325-0.191 0.656-0.382 0.987-0.578 0.449-0.263 0.899-0.526 1.358-0.794 0.217-0.129 0.444-0.263 0.666-0.392 0.94-0.557 1.906-1.13 2.892-1.718 0.32-0.191 0.635-0.377 0.961-0.573 0.511-0.304 1.028-0.614 1.549-0.929 0.341-0.201 0.682-0.408 1.028-0.614 1.792-1.078 3.636-2.193 5.526-3.343 0.356-0.222 0.718-0.439 1.079-0.655 0.547-0.335 1.095-0.671 1.648-1.006 0.408-0.248 0.816-0.5 1.224-0.748 39.372-24.092 94.792-60.174 94.792-60.174-7.654-43.263-29.611-61.974-77.526-63.052-2.954-0.062-5.847-0.031-8.687 0.088-10.707 0.031-36.862 6.645-36.862 6.645-22.814 7.346-37.854 18.381-41.97 21.090v0zM310.609 678.286c-6.766 24.531 7.758 49.866 32.436 56.593l247.984 67.566c24.683 6.722 50.172-7.713 56.938-32.238l13.295-48.21-28.753-7.831c-7.143 10.865-20.758 16.431-34.027 12.815l-217.872-59.364c-6.374-1.733-11.724-5.339-15.639-10.050-10.025 6.485-31.284 18.072-53.173 16.416l-1.188 4.303zM730.885 667.592c6.575-23.844-7.546-48.473-31.537-55.009l-112.084-30.541c-0.005 0-0.010 0-0.021-0.005-23.991-6.536-48.767 7.496-55.347 31.34-6.575 23.85 7.541 48.478 31.532 55.015l112.11 30.546c23.986 6.536 48.767-7.496 55.347-31.346v0zM761.611 556.17c6.58-23.844-7.541-48.473-31.532-55.015l-112.084-30.536c-0.005-0.005-33.644-9.167-33.65-9.173-23.991-6.536-48.772 7.496-55.347 31.346-6.58 23.844 7.541 48.473 31.532 55.009l145.734 39.708c23.991 6.536 48.772-7.496 55.347-31.34v0zM792.343 444.747c6.575-23.85-7.541-48.478-31.532-55.015l-112.084-30.541c-0.010 0-0.015 0-0.021-0.005-23.991-6.536-48.772 7.496-55.347 31.346-6.575 23.844 7.541 48.473 31.532 55.009l112.105 30.546c23.991 6.536 48.772-7.496 55.347-31.34v0zM780.851 278.146l-92.716-25.263c-23.438-6.382-47.652 7.326-54.077 30.623-6.425 23.303 7.365 47.364 30.809 53.751l92.716 25.263c23.438 6.387 47.652-7.32 54.077-30.623 6.425-23.298-7.365-47.364-30.809-53.751v0zM826.261 250.742l-6.182 22.426c15.887 16.957 22.839 41.452 16.223 65.446-5.563 20.176-19.575 35.782-37.198 44.134 17.561 17.396 25.484 43.407 18.465 68.871-6.348 23.009-23.433 40.224-44.398 47.802 14.147 17.143 20.009 40.611 13.666 63.62-6.348 23.014-23.428 40.224-44.398 47.802 14.147 17.148 20.009 40.611 13.661 63.62-7.949 28.838-32.751 48.576-60.941 51.641l-20.902 75.774c-9.023 32.707-43.008 51.955-75.914 42.989l-284.407-77.492c-32.906-8.966-52.269-42.747-43.246-75.454l8.419-30.541c-28.015-16.684-49.924-39.878-65.207-61.272-17.938-25.103-30.607-80.216-34.522-109.73-3.91-29.519 22.127-85.695 25.69-93.144 3.564-7.455 18.377-31.124-8.987-60.287-27.359-29.168-95.355-69.413-109.992-84.627-14.632-15.219-44.134-66.684 5.687-110.762s146.777-122.483 146.777-122.483c0 0 69.009-50.826 115.312 13.449l46.298 64.28 23.764 40.054c10.562-30.298 43.112-47.663 74.675-39.063l284.407 77.487c32.911 8.966 52.274 42.752 43.251 75.459v0zM424.186 704.844l113.422 30.902c5.47 1.491 8.693 7.109 7.19 12.546-1.498 5.443-7.148 8.641-12.623 7.15l-113.422-30.902c-5.47-1.491-8.693-7.109-7.19-12.552 1.498-5.437 7.153-8.636 12.623-7.145v0z" />
<glyph unicode="&#xe937;" glyph-name="show" d="M511.996 548.169c-53.058 0-96.245-45.641-96.245-101.522s43.187-101.522 96.245-101.522c53.060 0 96.248 45.641 96.248 101.522s-43.187 101.522-96.248 101.522zM511.996 736c-255.113 0-511.996-292.571-511.996-292.571s256.882-292.571 511.996-292.571c255.116 0 512.004 292.571 512.004 292.571s-256.888 292.571-512.004 292.571zM511.996 239.506c-108.428 0-196.344 92.745-196.344 207.141s87.916 206.848 196.344 206.848c108.433 0 196.273-92.453 196.273-206.848s-87.84-207.141-196.273-207.141z" />
<glyph unicode="&#xe938;" glyph-name="WindowsPhone" d="M246.532 789.358c0 0 77.392 51.761 193.396 41.228 59.108-5.295 102.032-30.637 144.032-58.191l-84.924-287.637c0 0-75.18 51.964-144.9 58.22-103.208 9.543-175.252-29.59-192.472-39.133l84.868 285.513zM256.276 208.789c-103.208 9.601-176.26-29.561-192.276-39.046l83.776 284.407c0 0 77.252 52.837 194.432 42.217 59.080-5.208 102.144-30.55 144.004-58.162l-84.924-287.579c0 0-76.356 51.819-145.012 58.162zM775.144 98.895c-22.568-10.533-97.86-43.352-185.78-32.849-59.22 6.372-102.116 29.735-142.94 54.961l85.96 286.56c38.752-25.226 81.648-48.618 138.516-54.845 104.244-11.609 190.176 35.846 190.176 35.846l-85.932-289.674zM873.004 431.979c-21.504-10.591-97.86-43.41-185.976-32.82-58.072 6.401-102.060 29.619-141.848 56.038l84.924 286.589c38.64-25.284 81.676-48.647 138.6-55.019 104.3-11.609 191.296 35.991 191.296 35.991l-86.996-290.779z" />
<glyph unicode="&#xe939;" glyph-name="windows-r" d="M512 960c-283.733 0-512-228.267-512-512s228.267-512 512-512 512 228.267 512 512-228.267 512-512 512zM512-21.333c-260.267 0-469.333 209.067-469.333 469.333s209.067 469.333 469.333 469.333 469.333-209.067 469.333-469.333-209.067-469.333-469.333-469.333zM428.8 507.733c36.267-4.267 76.8-32 76.8-32l44.8 153.6c-21.333 14.933-44.8 27.733-74.667 29.867-59.733 6.4-100.267-21.333-100.267-21.333l-44.8-151.467c6.4 6.4 44.8 25.6 98.133 21.333zM422.4 482.133c-61.867 6.4-102.4-23.467-102.4-23.467l-44.8-151.467c8.533 4.267 46.933 25.6 100.267 21.333 36.267-4.267 76.8-29.867 76.8-29.867l44.8 153.6c-21.333 14.933-42.667 27.733-74.667 29.867zM595.2 407.467c-29.867 4.267-51.2 14.933-72.533 29.867l-44.8-151.467c21.333-12.8 44.8-25.6 74.667-29.867 46.933-6.4 85.333 12.8 98.133 17.067l44.8 153.6c0-2.133-44.8-25.6-100.267-19.2zM646.4 584.533c-29.867 4.267-53.333 14.933-72.533 29.867l-44.8-151.467c21.333-14.933 44.8-25.6 74.667-29.867 46.933-6.4 85.333 12.8 98.133 17.067l44.8 153.6c0 0-44.8-25.6-100.267-19.2z" />
<glyph unicode="&#xe93a;" glyph-name="mini-program-r" d="M512 962.133c-283.733 0-512-228.267-512-512s228.267-512 512-512 512 228.267 512 512-228.267 512-512 512zM512-19.2c-260.267 0-469.333 209.067-469.333 469.333s209.067 469.333 469.333 469.333 469.333-209.067 469.333-469.333-209.067-469.333-469.333-469.333zM603.733 642.133c-66.133 0-121.6-53.333-121.6-117.333 0-2.133 0-162.133 0-162.133-2.133-32-29.867-57.6-64-57.6-36.267 0-64 27.733-64 61.867 0 32 23.467 57.6 53.333 61.867v0c14.933 0 27.733 12.8 27.733 27.733s-12.8 27.733-27.733 27.733c-2.133 0-2.133 0-4.267 0 0 0-2.133 0-2.133 0-57.6-8.533-102.4-57.6-102.4-117.333 0-66.133 53.333-117.333 121.6-117.333 64 0 115.2 46.933 119.467 108.8 0 2.133 0 166.4 0 168.533 0 34.133 29.867 61.867 64 61.867 36.267 0 64-27.733 64-61.867 0-32-25.6-59.733-57.6-61.867v0c-12.8-2.133-23.467-12.8-23.467-27.733s12.8-27.733 27.733-27.733c2.133 0 2.133 0 4.267 0 0 0 2.133 0 2.133 0 57.6 8.533 102.4 57.6 102.4 117.333 2.133 61.867-51.2 115.2-119.467 115.2z" />
<glyph unicode="&#xe93b;" glyph-name="iOS-r" d="M512 960c-283.733 0-512-228.267-512-512s228.267-512 512-512 512 228.267 512 512-228.267 512-512 512zM512-21.333c-260.267 0-469.333 209.067-469.333 469.333s209.067 469.333 469.333 469.333 469.333-209.067 469.333-469.333-209.067-469.333-469.333-469.333zM691.2 548.267c-23.467 29.867-55.467 46.933-85.333 46.933-40.533 0-57.6-19.2-85.333-19.2s-51.2 19.2-85.333 19.2c-34.133 0-70.4-21.333-93.867-57.6-32-51.2-27.733-149.333 25.6-232.533 19.2-29.867 44.8-61.867 76.8-64 29.867 0 38.4 19.2 76.8 19.2 40.533 0 46.933-19.2 76.8-19.2 34.133 0 59.733 36.267 78.933 66.133 12.8 21.333 19.2 32 29.867 55.467-78.933 32-89.6 145.067-14.933 185.6zM507.733 593.067c25.6 0 51.2 14.933 66.133 36.267 14.933 19.2 25.6 46.933 21.333 74.667-23.467-2.133-51.2-17.067-68.267-38.4-14.933-17.067-25.6-44.8-19.2-72.533v0z" />
<glyph unicode="&#xe93c;" glyph-name="html5-r" d="M512 960c-283.733 0-512-228.267-512-512s228.267-512 512-512 512 228.267 512 512-228.267 512-512 512zM512-21.333c-260.267 0-469.333 209.067-469.333 469.333s209.067 469.333 469.333 469.333 469.333-209.067 469.333-469.333-209.067-469.333-469.333-469.333zM337.067 228.267l174.933-46.933 174.933 49.067 38.4 430.933h-426.667l38.4-433.067zM646.4 573.867l-4.267-53.333h-204.8l4.267-55.467h196.267l-14.933-162.133-108.8-29.867-108.8 29.867-8.533 83.2h53.333l4.267-42.667 59.733-14.933 59.733 14.933 6.4 68.267h-185.6l-14.933 160 266.667 2.133z" />
<glyph unicode="&#xe93d;" glyph-name="android-r" d="M512 960c-283.733 0-512-228.267-512-512s228.267-512 512-512 512 228.267 512 512-228.267 512-512 512zM512-21.333c-260.267 0-469.333 209.067-469.333 469.333s209.067 469.333 469.333 469.333 469.333-209.067 469.333-469.333-209.067-469.333-469.333-469.333zM375.467 433.067v-108.8c0-8.533 6.4-17.067 12.8-17.067h34.133v-64c0-17.067 12.8-29.867 29.867-29.867s29.867 12.8 29.867 29.867v64h59.733v-64c0-8.533 4.267-17.067 10.667-23.467 4.267-4.267 10.667-6.4 17.067-6.4v0 0c17.067 0 29.867 12.8 29.867 29.867v64h34.133c8.533 0 12.8 8.533 12.8 17.067v202.667h-270.933v-93.867zM695.467 546.133c-17.067 0-29.867-12.8-29.867-29.867v-117.333c0-17.067 12.8-29.867 29.867-29.867s29.867 12.8 29.867 29.867v117.333c0 17.067-12.8 29.867-29.867 29.867zM328.533 546.133c-17.067 0-29.867-12.8-29.867-29.867v-117.333c0-17.067 12.8-29.867 29.867-29.867s29.867 12.8 29.867 29.867v117.333c-2.133 17.067-14.933 29.867-29.867 29.867zM578.133 652.8l23.467 25.6c0 0 0 2.133-2.133 2.133s-2.133 2.133-4.267 0l-23.467-27.733c-17.067 6.4-36.267 10.667-61.867 10.667s-44.8-4.267-61.867-10.667l-21.333 29.867c0 0-2.133 0-4.267 0s-2.133-2.133-2.133-2.133l21.333-25.6c-57.6-25.6-66.133-87.467-68.267-106.667h270.933c2.133 17.067-6.4 78.933-66.133 104.533zM452.267 590.933c-8.533 0-17.067 6.4-17.067 17.067 0 8.533 6.4 17.067 17.067 17.067 8.533 0 17.067-6.4 17.067-17.067 0-8.533-8.533-17.067-17.067-17.067zM571.733 590.933c-8.533 0-17.067 6.4-17.067 17.067 0 8.533 6.4 17.067 17.067 17.067 8.533 0 17.067-6.4 17.067-17.067 0-8.533-8.533-17.067-17.067-17.067z" />
<glyph unicode="&#xe93e;" glyph-name="eauth" d="M622.519 265.49l-108.875 180.332h211.678c0.007 0.725 0.011 1.451 0.011 2.178 0 117.821-95.513 213.333-213.333 213.333s-213.333-95.513-213.333-213.333c0-117.821 95.513-213.333 213.333-213.333 40.458 0 78.286 11.262 110.519 30.823zM511.125 23.083c-235.158 0-425.792 190.634-425.792 425.792s190.634 425.792 425.792 425.792c235.158 0 425.792-190.634 425.792-425.792s-190.634-425.792-425.792-425.792zM512 149.333c164.949 0 298.667 133.718 298.667 298.667s-133.718 298.667-298.667 298.667c-164.949 0-298.667-133.718-298.667-298.667s133.718-298.667 298.667-298.667z" />
<glyph unicode="&#xe93f;" glyph-name="error-report" d="M426.667 736.874c24 0 42 20.984 42 46.164s-18 44.066-42 44.066c-24 0-42-18.885-42-44.066s18-46.164 42-46.164zM458.864 21.333c-46.844 58.436-74.864 132.613-74.864 213.333 0 188.513 152.82 341.333 341.333 341.333 29.466 0 58.059-3.734 85.333-10.753v171.628c0 48.262-40 90.23-86 90.23h-178c-18 52.459-64 90.23-120 90.23s-102-37.77-120-90.23h-178c-46 0-86-41.967-86-90.23v-625.311c0-48.262 40-90.23 86-90.23h330.198zM170.667 618.667h341.333v-85.333h-341.333v85.333zM170.667 448h170.667v-85.333h-170.667v85.333zM170.667 277.333h170.667v-85.333h-170.667v85.333zM725.333-21.333c141.385 0 256 114.615 256 256s-114.615 256-256 256c-141.385 0-256-114.615-256-256s114.615-256 256-256zM682.667 405.333h85.333v-213.333h-85.333v213.333zM682.667 149.333h85.333v-85.333h-85.333v85.333z" />
<glyph unicode="&#xe940;" glyph-name="Hybrid" d="M85.333 615.911v-245.975h49.608v109.207h57.876v-109.207h49.608v245.975h-49.608v-94.049h-57.876v94.049h-49.608zM275.499 345.82v-35.484h19.292c11.024 0 20.153 0.804 27.388 2.412s13.436 4.995 18.603 10.163c5.168 5.168 9.646 12.517 13.436 22.048s7.751 21.991 11.885 37.379l44.785 172.94h-47.541l-24.115-128.155h-0.689l-27.56 128.155h-49.608l52.020-185.342c-0.689-7.579-2.928-13.665-6.718-18.259s-10.048-6.89-18.775-6.89c-4.134 0-8.268 0.344-12.402 1.034zM428.458 615.911v-245.975h45.474v19.637h0.689c5.282-8.727 11.196-14.814 17.742-18.259s14.641-5.168 24.287-5.168c19.522 0 33.876 7.464 43.063 22.393s13.78 39.618 13.78 74.068c0 34.45-4.593 59.312-13.78 74.585s-23.541 22.909-43.063 22.909c-8.957 0-16.594-1.837-22.909-5.512s-12-9.187-17.053-16.536h-0.689v77.858h-47.541zM475.999 462.607c0 20.211 1.55 35.426 4.651 45.647s9.933 15.33 20.498 15.33c10.335 0 17.053-5.11 20.153-15.33s4.651-25.436 4.651-45.647c0-20.211-1.55-35.426-4.651-45.647s-9.818-15.33-20.153-15.33c-10.565 0-17.397 5.11-20.498 15.33s-4.651 25.436-4.651 45.647zM600.709 555.278v-185.342h47.541v111.274c0 6.201 1.033 11.426 3.101 15.675s4.823 7.694 8.268 10.335c3.445 2.641 7.235 4.536 11.369 5.684s8.268 1.723 12.402 1.723c2.526 0 4.995-0.057 7.407-0.172s4.88-0.287 7.407-0.517v45.474c-1.378 0.23-2.813 0.402-4.306 0.517s-2.928 0.172-4.306 0.172c-9.876 0-18.259-2.699-25.149-8.096s-12.747-12.574-17.57-21.531h-0.689v24.804h-45.474zM717.151 618.667v-40.651h47.541v40.651h-47.541zM717.151 555.278v-185.342h47.541v185.342h-47.541zM893.192 389.572v-19.637h45.474v245.975h-47.541v-77.858h-0.689c-5.053 7.349-10.737 12.861-17.053 16.536s-13.952 5.512-22.909 5.512c-19.522 0-33.876-7.636-43.063-22.909s-13.78-40.134-13.78-74.585c0-34.45 4.593-59.14 13.78-74.068s23.541-22.393 43.063-22.393c9.646 0 17.742 1.722 24.287 5.168s12.459 9.531 17.742 18.259h0.689zM841.172 462.607c0 20.211 1.55 35.426 4.651 45.647s9.818 15.33 20.153 15.33c10.565 0 17.397-5.11 20.498-15.33s4.651-25.436 4.651-45.647c0-20.211-1.55-35.426-4.651-45.647s-9.933-15.33-20.498-15.33c-10.335 0-17.053 5.11-20.153 15.33s-4.651 25.436-4.651 45.647z" />
<glyph unicode="&#xe941;" glyph-name="push-marketing" d="M85.334 465.068l282.667-124.533 570.667 534.133-853.333-409.6zM410.398 299.468l138.4-278.133 389.869 853.333-528.269-575.2z" />
<glyph unicode="&#xe942;" glyph-name="push-settings" d="M815.308 470c-177.153 0-322.097-144-322.097-320 0-14 2.013-30 4.026-44h-497.237l859.596 854-2.013-494c-14.092 2-28.183 4-42.275 4zM974.343 128l46.301-34c4.026-4 4.026-10 2.013-14l-42.275-74c-2.013-4-10.066-8-14.092-6l-52.341 22c-10.066-8-24.157-14-36.236-20l-8.052-58c0-6-6.039-8-12.079-8h-84.55c-6.039 0-12.079 2-12.079 8l-8.052 58c-14.092 6-24.157 12-36.236 20l-52.341-22c-6.039-2-12.079 2-14.092 6l-42.275 74c-2.013 4-2.013 10 2.013 14l46.301 34c0 6-2.013 14-2.013 22s2.013 14 2.013 20l-46.301 36c-4.026 4-4.026 10-2.013 14l42.275 74c2.013 4 10.066 6 14.092 4l52.341-22c12.079 8 24.157 16 36.236 22l8.052 56c0 6 6.039 8 12.079 8h84.55c6.039 0 12.079-2 12.079-8l8.052-56c14.092-6 24.157-14 36.236-22l52.341 22c6.039 2 12.079 0 14.092-4l42.275-74c2.013-4 2.013-10-2.013-14l-46.301-36c2.013-6 2.013-12 2.013-20s-2.013-16-2.013-22zM815.308 86c36.236 0 64.419 28 64.419 64s-28.183 64-64.419 64c-36.236 0-64.419-28-64.419-64s28.183-64 64.419-64z" />
<glyph unicode="&#xe943;" glyph-name="settings-applications" d="M512 543.556c51.111 0 95.556-44.444 95.556-95.556s-44.444-95.556-95.556-95.556c-51.111 0-95.556 44.444-95.556 95.556s44.444 95.556 95.556 95.556v0zM843.111 874.667c53.333 0 95.556-44.444 95.556-95.556v-662.222c0-51.111-42.222-95.556-95.556-95.556h-662.222c-53.333 0-95.556 44.444-95.556 95.556v662.222c0 51.111 42.222 95.556 95.556 95.556h662.222zM760.889 448c0 11.111 0 22.222-2.222 33.333l71.111 53.333c6.667 4.444 6.667 15.556 2.222 22.222l-66.667 115.556c-4.444 6.667-13.333 8.889-20 6.667l-82.222-33.333c-17.778 13.333-35.556 24.444-55.556 33.333l-13.333 86.667c-2.222 6.667-6.667 13.333-15.556 13.333h-133.333c-8.889 0-13.333-4.444-15.556-13.333l-13.333-88.889c-20-8.889-37.778-17.778-55.556-31.111l-82.222 33.333c-6.667 2.222-15.556-2.222-20-8.889l-66.667-113.333c-4.444-6.667-4.444-17.778 2.222-22.222l71.111-53.333c-2.222-11.111-2.222-22.222-2.222-33.333s0-22.222 2.222-33.333l-71.111-53.333c-6.667-4.444-6.667-15.556-2.222-22.222l66.667-115.556c4.444-6.667 13.333-8.889 20-6.667l82.222 33.333c17.778-13.333 35.556-24.444 55.556-33.333l13.333-86.667c2.222-6.667 6.667-13.333 15.556-13.333h133.333c8.889 0 13.333 4.444 15.556 13.333l13.333 88.889c20 8.889 37.778 17.778 55.556 31.111l82.222-33.333c6.667-2.222 15.556 2.222 20 8.889l66.667 113.333c4.444 6.667 4.444 17.778-2.222 22.222l-71.111 53.333c2.222 11.111 2.222 22.222 2.222 33.333v0z" />
<glyph unicode="&#xe944;" glyph-name="user-search" d="M512 448c-117.271 0-212.086 94.815-212.086 212.086s94.815 214.581 212.086 214.581c117.271 0 212.086-97.31 212.086-214.581s-94.815-212.086-212.086-212.086zM512 340.71c142.222 0 426.667-69.864 426.667-212.086v-107.29h-853.333v107.29c0 142.222 284.444 212.086 426.667 212.086z" />
</font>
</defs>
</svg>
